<?xml version="1.0" standalone="no"?><!DOCTYPE svg PUBLIC "-//W3C//DTD SVG 1.1//EN" "http://www.w3.org/Graphics/SVG/1.1/DTD/svg11.dtd"><svg t="1697089504548"  viewBox="0 0 1024 1024" version="1.1" xmlns="http://www.w3.org/2000/svg" p-id="26578" xmlns:xlink="http://www.w3.org/1999/xlink" ><path d="M387.52 478.03l71.171 71.17A65.367 65.367 0 0 0 474.8 565.31l71.172 71.171A129.15 129.15 0 0 1 512 641c-71.245 0-129-57.755-129-129a129.15 129.15 0 0 1 4.52-33.97z m90.51-90.51A129.15 129.15 0 0 1 512 383c71.245 0 129 57.755 129 129a129.15 129.15 0 0 1-4.52 33.97L565.31 474.8A65.367 65.367 0 0 0 549.2 458.69l-71.172-71.171z m309.093 309.093l-46.502-46.502C798.645 615.528 848.194 568.205 885.406 512h0.41C805.625 390.878 668.14 311 512 311c-34.168 0-67.443 3.825-99.42 11.07l-52.237-52.237C408.266 254.993 459.2 247 512 247c193.204 0 361.414 107.013 448.589 265h-0.411c-41.406 75.039-101.092 138.578-173.055 184.613zM663.56 754.07C615.545 768.973 564.505 777 511.589 777 318.385 777 150.175 669.987 63 512h0.411c41.454-75.126 101.23-138.726 173.306-184.774l46.509 46.51C225.09 408.332 175.45 455.712 138.183 512h-0.41c80.192 121.122 217.676 201 373.816 201 34.288 0 67.676-3.852 99.755-11.147l52.216 52.216zM87.627 87.627c12.497-12.496 32.758-12.496 45.255 0l802.566 802.567c12.497 12.496 12.497 32.758 0 45.254-12.496 12.497-32.758 12.497-45.254 0L87.627 132.882c-12.496-12.497-12.496-32.758 0-45.255z"  p-id="26579"></path></svg>
